<svg width="230" height="365" viewBox="0 0 230 365" fill="none" xmlns="http://www.w3.org/2000/svg">
<path d="M148.5 238C165.32 224.087 200.5 217.5 200.5 217.5C200.5 217.5 193.912 256.39 177 272.5C159.071 289.579 117 293 117 293C117 293 129.427 253.776 148.5 238Z" stroke="white" stroke-width="8"/>
<path d="M83 238C66.1798 224.087 31 217.5 31 217.5C31 217.5 37.5876 256.39 54.5 272.5C72.429 289.579 114.5 293 114.5 293C114.5 293 102.073 253.776 83 238Z" stroke="white" stroke-width="8"/>
<circle cx="114.5" cy="146" r="20.5" stroke="white" stroke-width="6"/>
<line x1="115" y1="198.5" x2="115" y2="340.5" stroke="white" stroke-width="8" stroke-linecap="round"/>
<path d="M143.5 184C140.432 174.114 125.5 165.5 125.5 165.5L115 170.5C115 170.5 112.62 190.105 119 198.5C128.5 211 147.5 217 147.5 217C147.5 217 148 198.5 143.5 184Z" stroke="white" stroke-width="8"/>
<path d="M86.0165 185C89.0845 175.114 104.017 166.5 104.017 166.5L114.517 171.5C114.517 171.5 116.897 191.105 110.517 199.5C101.017 212 82.0165 218 82.0165 218C82.0165 218 81.5165 199.5 86.0165 185Z" stroke="white" stroke-width="8"/>
<path d="M59.9511 154.452C69.565 146.725 90.0377 148.148 90.0377 148.148L100 162.5C100 162.5 86.3514 181.03 74.4629 185.081C56.7608 191.111 34.0163 184.399 34.0163 184.399C34.0163 184.399 45.8497 165.786 59.9511 154.452Z" stroke="white" stroke-width="8"/>
<path d="M171.875 154.452C162.261 146.725 141.789 148.148 141.789 148.148L131 161C131 161 145.475 181.03 157.364 185.081C175.066 191.111 197.81 184.399 197.81 184.399C197.81 184.399 185.977 165.786 171.875 154.452Z" stroke="white" stroke-width="8"/>
<path d="M157.399 91.359C140.625 98.7892 128.528 126.816 128.528 126.816L139.492 144.247C139.492 144.247 174.5 144.393 187.969 131.447C208.024 112.17 214.68 77.5291 214.68 77.5291C214.68 77.5291 182.004 80.4607 157.399 91.359Z" stroke="white" stroke-width="8"/>
<path d="M74.055 91.359C90.8297 98.7892 102.926 126.816 102.926 126.816L91.9628 144.247C91.9628 144.247 56.9541 144.393 43.4854 131.447C23.4304 112.17 16.774 77.5291 16.774 77.5291C16.774 77.5291 49.4501 80.4607 74.055 91.359Z" stroke="white" stroke-width="8"/>
<path d="M92 64C87.3821 78.7183 90 102 90 102L103.5 124.5H127.5L139 102C139 102 142.223 78.6849 137.5 64C132.502 48.4599 114 29 114 29C114 29 96.8178 48.6446 92 64Z" stroke="white" stroke-width="8"/>
<path d="M169 46.5C169 46.5 150.953 51.1808 144.5 63C137.638 75.5683 142.5 100 142.5 100C142.5 100 162.595 90.1986 169 77C175.337 63.9425 169 46.5 169 46.5Z" stroke="white" stroke-width="8"/>
<path d="M60.8163 46.5C60.8163 46.5 78.8634 51.1808 85.3163 63C92.1783 75.5683 87.3163 100 87.3163 100C87.3163 100 67.2215 90.1986 60.8163 77C54.4796 63.9425 60.8163 46.5 60.8163 46.5Z" stroke="white" stroke-width="8"/>
<path d="M194.5 130.5C207.859 132.804 220.5 149.5 220.5 149.5C220.5 149.5 209.301 168.117 194.5 168C178.446 167.873 199 149.5 199 149.5C199 149.5 179.094 127.843 194.5 130.5Z" stroke="white" stroke-width="8"/>
<path d="M35 133.726C21.6409 136.03 9 152.726 9 152.726C9 152.726 20.1991 171.343 35 171.226C51.0538 171.099 30.5 152.726 30.5 152.726C30.5 152.726 50.4057 131.069 35 133.726Z" stroke="white" stroke-width="8"/>
</svg>
